HIERARCHY
ROOT Hips
{
  OFFSET 43.0842 91.1655 101.099
  CHANNELS 6 Xposition Yposition Zposition Zrotation Xrotation Yrotation
  JOINT LeftUpLeg
  {
    OFFSET 8.64259 1.95398 -2.38835
    CHANNELS 3 Zrotation Xrotation Yrotation
    JOINT LeftLeg
    {
      OFFSET 43.7702 0 0
      CHANNELS 3 Zrotation Xrotation Yrotation
      JOINT LeftFoot
      {
        OFFSET 40.6238 0 0
        CHANNELS 3 Zrotation Xrotation Yrotation
        JOINT LeftToeBase
        {
          OFFSET 12.7242 0 0
          CHANNELS 3 Zrotation Xrotation Yrotation
          End Site
          {
            OFFSET 0 0 0
          }
        }
      }
    }
  }
  JOINT RightUpLeg
  {
    OFFSET -8.2249 1.95398 -2.59336
    CHANNELS 3 Zrotation Xrotation Yrotation
    JOINT RightLeg
    {
      OFFSET 43.5653 0 0
      CHANNELS 3 Zrotation Xrotation Yrotation
      JOINT RightFoot
      {
        OFFSET 40.6238 0 0
        CHANNELS 3 Zrotation Xrotation Yrotation
        JOINT RightToeBase
        {
          OFFSET 12.7242 0 0
          CHANNELS 3 Zrotation Xrotation Yrotation
          End Site
          {
            OFFSET 0 0 0
          }
        }
      }
    }
  }
  JOINT Spine
  {
    OFFSET 0.165834 0.87714 6.61349
    CHANNELS 3 Zrotation Xrotation Yrotation
    JOINT Spine1
    {
      OFFSET 7.38963 1.71661e-005 0
      CHANNELS 3 Zrotation Xrotation Yrotation
      JOINT Spine2
      {
        OFFSET 11.9445 1.14441e-005 0
        CHANNELS 3 Zrotation Xrotation Yrotation
        JOINT Spine3
        {
          OFFSET 14.7254 4.19617e-005 0
          CHANNELS 3 Zrotation Xrotation Yrotation
          JOINT Spine4
          {
            OFFSET 10.9679 0 0
            CHANNELS 3 Zrotation Xrotation Yrotation
            JOINT RightShoulder
            {
              OFFSET 2.46616 -1.6653 3.69651
              CHANNELS 3 Zrotation Xrotation Yrotation
              JOINT RightArm
              {
                OFFSET 13.0012 0 0
                CHANNELS 3 Zrotation Xrotation Yrotation
                JOINT RightForeArm
                {
                  OFFSET 28.7848 1.52588e-005 0
                  CHANNELS 3 Zrotation Xrotation Yrotation
                  JOINT RightHand
                  {
                    OFFSET 26.5688 1.52588e-005 0
                    CHANNELS 3 Zrotation Xrotation Yrotation
                    End Site
                    {
                      OFFSET 0 0 0
                    }
                  }
                }
              }
            }
            JOINT LeftShoulder
            {
              OFFSET 2.38034 -1.29275 -3.7523
              CHANNELS 3 Zrotation Xrotation Yrotation
              JOINT LeftArm
              {
                OFFSET 16.3182 6.10351e-005 0
                CHANNELS 3 Zrotation Xrotation Yrotation
                JOINT LeftForeArm
                {
                  OFFSET 27.0901 0 0
                  CHANNELS 3 Zrotation Xrotation Yrotation
                  JOINT LeftHand
                  {
                    OFFSET 24.5451 1.52588e-005 0
                    CHANNELS 3 Zrotation Xrotation Yrotation
                    End Site
                    {
                      OFFSET 0 0 0
                    }
                  }
                }
              }
            }
            JOINT Neck
            {
              OFFSET 5.0226 -0.0266342 0
              CHANNELS 3 Zrotation Xrotation Yrotation
              JOINT Head
              {
                OFFSET 6.69364 2.86102e-005 0
                CHANNELS 3 Zrotation Xrotation Yrotation
                End Site
                {
                  OFFSET 0 0 0
                }
              }
            }
          }
        }
      }
    }
  }
}
MOTION
Frames:	12
Frame Time:	0.0333333
-10.23 91.5526 39.5767 89.8048 -25.6247 88.4124 -174.349 8.30449 89.0579 -30.7005 17.9052 -3.32973 65.9352 7.01021 18.4536 35.3106 5.10752 6.23177 173.416 22.0973 79.1342 -21.2117 -3.56611 0.278756 59.739 -1.66171 5.09725 26.6706 3.43072 -5.52338 0.850867 7.79751 -89.9096 11.2799 1.73541 0.00773337 -0.389864 1.73408 -0.0686829 -22.9337 1.65284 0.529086 -2.92106 1.65283 0.529077 88.588 -58.7671 -100.908 -17.7674 -3.01357 -42.0797 -12.7399 40.3144 -23.0912 -6.12307 0.342589 10.51 -108.667 -59.4147 55.8955 -11.3502 31.5986 6.94025 9.03955 1.0956 -82.2202 17.7615 1.58731 12.5576 -10.1945 -14.825 -10.3109 -6.97509 -14.1911 -6.58166 
-10.2473 91.8692 39.5728 89.648 -25.147 88.2979 -174.731 7.84624 88.8207 -29.3188 17.8747 -2.94826 65.2769 6.54981 18.5902 35.1754 5.13724 5.83002 173.742 21.8367 79.3701 -21.228 1.46694 -0.0232906 59.1414 -1.08727 7.97189 27.3031 2.16804 -3.40759 0.77501 7.79278 -89.9667 11.29 1.55784 -0.0886773 -0.380063 1.55243 -0.157176 -22.9224 1.51246 0.383735 -2.90973 1.51245 0.383721 88.8925 -57.3127 -100.802 -18.643 -6.40569 -43.0081 -15.1987 43.8137 -20.2617 -5.84893 0.448339 10.5576 -109.045 -59.6778 55.5194 -10.9194 31.4087 6.8194 8.78417 1.22174 -82.0521 17.6319 1.58641 11.7856 -9.67884 -14.7198 -7.98338 -7.6652 -14.0767 -8.22566 
-10.2059 92.0325 39.7262 89.6167 -24.4343 88.2479 -175.113 7.25253 88.7211 -28.0924 17.8147 -2.52476 64.6308 5.76591 18.7617 35.5781 6.3182 4.58168 173.852 20.7084 79.4817 -19.5758 2.06791 -0.137958 58.8297 -0.317939 7.07436 26.6895 2.12509 -2.35535 0.665975 7.79811 -90.0406 11.2794 1.30648 -0.210434 -0.390935 1.29597 -0.267745 -22.9313 1.30931 0.19202 -2.91868 1.30929 0.19201 89.0499 -55.5785 -100.96 -19.1169 -8.51406 -44.3908 -16.2678 45.4555 -17.0564 -6.66576 0.116938 10.2108 -109.715 -60.0664 54.8258 -10.2854 30.9219 6.72164 6.54378 0.651453 -82.2763 15.6643 1.03549 12.659 -8.85247 -14.6652 -5.26286 -8.45546 -14.0001 -10.1153 
-10.0835 92.1255 40.1269 89.5193 -24.484 88.2133 -175.157 6.69618 88.8878 -27.1621 17.4806 -2.43413 64.5425 5.6163 18.5756 35.6032 6.471 4.34363 174.197 19.3889 79.8566 -17.305 -0.126639 -0.257236 58.6354 0.417336 4.30465 26.5629 1.94922 -1.72595 0.711531 7.76135 -90.072 11.3535 1.38236 -0.281873 -0.316724 1.36861 -0.342456 -22.8578 1.40313 0.146692 -2.84512 1.40314 0.146694 89.1265 -55.8066 -100.8 -20.4318 -9.76941 -45.3553 -16.6581 45.402 -15.2522 -7.10074 0.0341548 11.1952 -110.195 -60.2534 54.2948 -9.53364 30.5563 6.2388 7.81101 1.4203 -81.6063 13.0598 0.245988 14.0867 -8.49092 -14.5266 -5.1093 -9.42252 -13.7953 -9.49459 
-9.97856 92.1365 40.6882 89.0898 -24.4461 87.6754 -175.323 6.34187 88.7267 -26.0617 16.3925 -2.33734 64.5136 5.84433 17.9961 35.507 6.37498 4.28275 174.571 18.8123 80.0104 -16.1699 0.430571 -0.570528 59.6663 -0.199044 3.86787 25.7438 2.40835 -1.65142 0.706185 7.71536 -90.0694 11.4455 1.37272 -0.277434 -0.224789 1.35919 -0.337595 -22.7657 1.39261 0.14803 -2.7531 1.39262 0.14803 88.7968 -56.0946 -101.207 -20.5925 -9.2179 -46.3191 -16.4057 43.7798 -14.1289 -6.09737 0.425174 11.384 -110.46 -60.4551 54.0434 -9.24027 29.9285 5.83219 8.39627 1.38788 -81.7931 11.9727 -0.0747515 14.3081 -8.72427 -14.6712 -5.20427 -8.83055 -13.9706 -10.0677 
-9.92684 92.3181 41.3628 88.901 -24.5208 87.5164 -175.426 5.68997 88.9173 -24.7754 16.335 -2.08209 63.9115 5.41074 17.7713 35.6855 6.43782 4.62817 174.89 18.4015 80.3005 -15.6855 1.01949 -0.802142 59.9145 0.0943904 4.34829 26.125 1.89551 -0.946789 0.715271 7.68548 -90.1072 11.5058 1.37294 -0.353938 -0.164467 1.35604 -0.414038 -22.7055 1.4158 0.0751279 -2.69281 1.41582 0.0751297 88.6757 -56.4596 -101.297 -20.7348 -9.34766 -46.6062 -15.6017 43.2878 -14.8629 -6.72616 0.224514 11.8369 -110.906 -60.7609 53.6109 -9.21015 29.3336 5.55412 9.05475 1.4217 -81.9043 11.1346 -0.254288 13.8029 -8.51662 -14.5927 -5.21761 -9.1116 -13.8573 -10.0177 
-9.90249 92.4831 42.0723 88.6138 -24.3797 87.9398 -175.146 5.68487 89.864 -24.3925 16.8859 -1.94172 63.5596 4.99068 17.6707 35.8057 6.67268 4.4747 174.893 17.7939 81.0435 -14.7639 1.85326 -0.504244 60.0246 0.178273 4.50402 25.6729 1.82986 -0.133541 0.699289 7.63781 -90.2301 11.6022 1.28339 -0.591044 -0.0682707 1.25612 -0.646968 -22.6084 1.40165 -0.177951 -2.59571 1.40166 -0.177953 88.6392 -56.5963 -101.317 -20.0954 -10.0037 -46.7732 -16.203 42.6115 -15.2833 -7.07172 0.0652134 11.4652 -111.733 -61.2104 52.7636 -9.13944 28.5784 5.45597 9.49933 1.38621 -81.9096 9.89369 -0.538319 13.3196 -8.72131 -14.3065 -5.05968 -9.27779 -13.5793 -10.0357 
-9.95438 92.5384 42.7432 87.955 -24.1838 88.0167 -175.145 6.23516 90.5816 -24.3687 16.5605 -1.73185 63.4929 4.77322 17.0115 35.8671 6.7937 4.39289 174.812 17.8579 81.5949 -14.2366 2.30871 -0.0388543 60.1413 0.165655 3.73172 25.6201 1.21176 1.48259 0.656894 7.57206 -90.3553 11.7337 1.13972 -0.828331 0.062907 1.10217 -0.877701 -22.4754 1.33599 -0.447461 -2.46278 1.33597 -0.447465 88.8896 -56.3965 -101.007 -18.7374 -10.159 -46.895 -16.8181 40.8711 -16.2141 -8.64884 -0.556639 11.0211 -111.779 -61.3557 52.7688 -9.99305 27.8357 4.92452 8.80842 1.2458 -81.7617 10.1262 -0.45873 13.1737 -8.52231 -14.0503 -4.7378 -9.39509 -13.3426 -9.55413 
-10.1003 92.5883 43.5355 87.7336 -23.4909 87.7303 -175.331 6.41954 90.7336 -24.2351 15.6427 -1.39324 63.321 4.68944 15.6892 36.0017 6.85534 4.62703 174.638 18.2753 81.6828 -15.2532 1.77898 0.250855 60.8261 -0.00947701 2.7802 25.6238 1.37688 1.06361 0.527108 7.57071 -90.3993 11.7354 0.860969 -0.886686 0.0644441 0.8211 -0.923727 -22.4718 1.08761 -0.58693 -2.4591 1.08763 -0.586941 88.6265 -57.2115 -101.197 -18.7244 -10.64 -46.6475 -16.8985 39.3641 -18.5325 -9.97816 -1.05142 11.0328 -112.063 -61.45 52.455 -10.6865 27.2931 4.93357 9.67767 0.956821 -82.3816 10.1761 -0.406812 12.8017 -8.72497 -13.8939 -4.82533 -8.59489 -13.2545 -9.528 
-10.1941 92.5849 44.3814 87.4194 -23.3211 87.8129 -175.182 6.83937 91.4594 -24.5181 15.2246 -1.24915 63.4507 4.65886 14.6171 36.1309 6.66145 5.37282 174.6 18.6409 82.277 -15.9646 0.910271 0.579403 61.2149 -0.259292 1.13384 26.0292 0.879642 1.74449 0.442392 7.57731 -90.4552 11.7214 0.666224 -0.97741 0.0502072 0.622596 -1.00579 -22.4845 0.929162 -0.732005 -2.47184 0.929173 -0.732007 88.4745 -57.6073 -101.322 -16.6588 -9.12732 -45.8452 -15.0579 35.1333 -23.191 -10.4617 -1.19574 11.9061 -110.854 -61.017 53.7855 -12.0398 26.9407 4.53098 10.3638 0.678764 -82.6105 10.3251 -0.275442 11.9026 -8.63141 -13.6887 -5.22873 -7.90487 -13.0896 -8.94648 
-10.3054 92.5873 45.2455 87.0986 -23.7993 87.8176 -174.927 7.09229 92.1002 -24.6736 14.9794 -1.29398 63.7164 4.70933 14.1173 35.8469 5.82059 6.27458 174.931 19.0666 82.9798 -16.6025 -0.62112 0.589928 61.338 -0.464985 -0.221541 26.796 0.696948 1.1172 0.443793 7.59735 -90.5044 11.6813 0.646157 -1.07293 0.0100216 0.598302 -1.10034 -22.5241 0.938733 -0.829153 -2.51144 0.938725 -0.829162 88.4506 -57.9453 -101.28 -16.1583 -10.0034 -45.6618 -15.6405 34.0811 -25.6824 -11.2681 -1.48539 12.3665 -111.301 -61.1843 53.2941 -11.8185 26.9849 4.41346 10.4672 -0.108545 -83.5288 7.62139 -1.13897 13.2757 -8.47958 -13.3601 -5.5717 -7.38169 -12.7818 -8.38544 
-10.4141 92.5064 45.9905 87.0256 -23.6933 87.5679 -174.851 7.21742 92.4375 -24.8891 15.1726 -1.27045 63.2084 3.5918 14.1529 36.5605 7.32359 5.18317 174.865 19.7684 83.1265 -18.1944 -2.89533 0.747627 61.7946 -0.542589 -2.31419 27.4809 0.390996 0.915849 0.37417 7.6405 -90.5234 11.5941 0.499224 -1.09459 -0.0771766 0.450558 -1.1155 -22.6104 0.805108 -0.89397 -2.59778 0.805078 -0.893986 88.5181 -58.2205 -101.125 -14.8173 -9.79509 -45.1425 -15.5775 32.6257 -29.1201 -10.2239 -1.08258 12.3695 -111.263 -61.1616 53.3327 -11.8294 26.8144 4.04349 11.524 -0.27106 -84.2321 8.51894 -0.866424 12.9988 -8.49763 -13.2044 -5.63807 -6.93784 -12.6581 -8.16015 
